<svg xmlns="http://www.w3.org/2000/svg" width="48" height="48" viewBox="0 0 48 48">
    <g fill="green" fill-rule="evenodd" stroke="yellow">
        <path stroke-linecap="round" d="M7 4c0 2.21 1.838 4 4.105 4h28.784"/>
        <path stroke-linecap="round" stroke-linejoin="round" d="M37.902 4.187c0-2.242 1.72-4.068 3.883-4.187H10.853C8.725 0 7 1.764 7 3.94v37.817C7 45.205 9.733 48 13.105 48H42V8.384c-2.264-.003-4.098-1.881-4.098-4.197z"/>
        <g stroke-linejoin="round">
            <path stroke-linecap="round" d="M11 30l3.682-8 3.682 8M12.525 26.952h4.315M38 23.233A4.409 4.409 0 0 0 34.912 22c-2.361 0-4.276 1.79-4.276 4s1.915 4 4.276 4a4.413 4.413 0 0 0 3.039-1.186"/>
            <path stroke-linecap="square" d="M21.892 22.483v7.236"/>
            <path stroke-linecap="round" d="M21.892 25.886h3.012c1.133 0 2.05-.845 2.05-1.886s-.917-1.886-2.05-1.886h-3.012M21.892 30h3.24c1.176 0 2.13-.895 2.13-2s-.954-2.114-2.13-2.114"/>
        </g>
    </g>
</svg>
